<?xml version="1.0" encoding="UTF-8"?>
<!DOCTYPE svg PUBLIC "-//W3C//DTD SVG 1.1//EN" "http://www.w3.org/Graphics/SVG/1.1/DTD/svg11.dtd">
<svg xmlns="http://www.w3.org/2000/svg" xml:space="preserve" width="70mm" height="70mm" style="shape-rendering:geometricPrecision; text-rendering:geometricPrecision; image-rendering:optimizeQuality; fill-rule:evenodd; clip-rule:evenodd"
viewBox="0 0 70 70"
 xmlns:xlink="http://www.w3.org/1999/xlink">
  <path style="fill:#00FFD0" d="M14.0589 16.0192c1.0071,2.1291 10.5237,2.6287 11.704,0l0 6.992c-1.6968,1.8539 -9.4374,1.6254 -11.704,0l0 -6.992zm14.6366 -4.9024c1.0071,2.1291 10.5237,2.6287 11.704,0l0 6.992c-1.6968,1.8539 -9.4374,1.6254 -11.704,0l0 -6.992zm15.5869 5.7641c1.0071,2.1291 10.5237,2.6287 11.704,0l0 6.992c-1.6968,1.8539 -9.4374,1.6254 -11.704,0l0 -6.992zm-14.5948 5.8784c1.0071,2.1291 10.5237,2.6287 11.704,0l0 6.992c-1.6968,1.8539 -9.4374,1.6254 -11.704,0l0 -6.992zm2.4541 14.4633l-0.0042 21.6606 -28.7492 -14.4846 0.0042 -21.6606 28.7492 14.4846zm34.47 7.058l-0.0042 -21.6606 -28.7492 14.4846 0.0042 21.6606 28.7492 -14.4846z"/>
</svg>
