<?xml version="1.0" encoding="UTF-8"?>
<!DOCTYPE svg PUBLIC "-//W3C//DTD SVG 1.1//EN" "http://www.w3.org/Graphics/SVG/1.1/DTD/svg11.dtd">
<svg xmlns="http://www.w3.org/2000/svg" xml:space="preserve" width="210mm" height="65mm" style="shape-rendering:geometricPrecision; text-rendering:geometricPrecision; image-rendering:optimizeQuality; fill-rule:evenodd; clip-rule:evenodd"
viewBox="0 0 210 65"
 xmlns:xlink="http://www.w3.org/1999/xlink">
  <path style="fill:#4A3841;fill-rule:nonzero" d="M107.717 27.6508c0,1.7564 -0.4622,3.3049 -1.3866,4.6454 -0.9245,1.3404 -2.1725,2.3804 -3.7441,3.12 0.4623,0.7395 0.9784,1.5793 1.5485,2.5191 0.5701,0.9399 1.1479,1.9414 1.7333,3.0045 0.5855,1.0631 1.1633,2.157 1.7334,3.2818 0.5701,1.1247 1.1016,2.2264 1.5947,3.3049l-4.0676 0c-0.9245,-2.2187 -1.9337,-4.3449 -3.0276,-6.3787 -1.0939,-2.0338 -2.1494,-3.6824 -3.1663,-4.9458 -0.1848,0.0308 -0.4545,0.0462 -0.8088,0.0462 -0.3544,0 -0.5932,0 -0.7165,0l-3.2356 0 0 11.2783 -3.8365 0 0 -28.1958c0.4623,-0.1232 0.9938,-0.2311 1.5947,-0.3235 0.6009,-0.0925 1.2172,-0.1618 1.8489,-0.208 0.6317,-0.0463 1.2557,-0.0848 1.872,-0.1156 0.6163,-0.0308 1.171,-0.0462 1.6641,-0.0462 3.4512,0 6.0474,0.7549 7.7885,2.2649 1.741,1.5099 2.6115,3.7594 2.6115,6.7485zm-10.0765 -5.7316c-0.7087,0 -1.3944,0.0077 -2.0569,0.0231 -0.6625,0.0154 -1.1324,0.0539 -1.4098,0.1155l0 11.0472 2.4498 0c1.1094,0 2.1031,-0.077 2.9814,-0.2311 0.8782,-0.154 1.6332,-0.4391 2.2649,-0.8551 0.6317,-0.416 1.117,-0.9861 1.456,-1.7102 0.339,-0.7242 0.5084,-1.6717 0.5084,-2.8427 0,-1.1094 -0.1694,-2.0184 -0.5084,-2.7271 -0.339,-0.7088 -0.7858,-1.2712 -1.3405,-1.6872 -0.5546,-0.416 -1.2095,-0.7087 -1.9644,-0.8782 -0.755,-0.1695 -1.5485,-0.2542 -2.3805,-0.2542zm25.0527 22.8802c0.9552,0 1.8103,-0.0308 2.5653,-0.0925 0.755,-0.0616 1.379,-0.1386 1.872,-0.2311l0 -6.3787c-0.493,-0.1541 -1.0862,-0.2773 -1.7795,-0.3698 -0.6934,-0.0924 -1.4252,-0.1387 -2.1956,-0.1387 -0.7088,0 -1.4021,0.054 -2.08,0.1618 -0.678,0.1079 -1.2789,0.3005 -1.8027,0.5778 -0.5239,0.2773 -0.9553,0.6394 -1.2942,1.0862 -0.339,0.4469 -0.5085,1.0092 -0.5085,1.6872 0,1.3866 0.4699,2.3496 1.4098,2.8889 0.9399,0.5392 2.211,0.8089 3.8134,0.8089zm-0.3698 -19.2286c1.6024,0 2.9505,0.2003 4.0445,0.6009 1.0939,0.4006 1.9798,0.9552 2.6578,1.664 0.6779,0.7087 1.1555,1.5715 1.4329,2.5884 0.2773,1.0169 0.416,2.1263 0.416,3.3281l0 13.4045c-0.8937,0.1541 -2.0724,0.339 -3.5361,0.5547 -1.4637,0.2157 -2.9659,0.3235 -4.5067,0.3235 -1.1709,0 -2.3111,-0.1001 -3.4204,-0.3004 -1.1094,-0.2003 -2.0955,-0.5547 -2.9583,-1.0631 -0.8628,-0.5085 -1.5561,-1.2095 -2.08,-2.1031 -0.5239,-0.8937 -0.7858,-2.0338 -0.7858,-3.4205 0,-1.2326 0.2696,-2.2726 0.8089,-3.12 0.5393,-0.8475 1.2326,-1.5331 2.08,-2.0569 0.8474,-0.5239 1.8181,-0.9014 2.912,-1.1325 1.094,-0.2311 2.1956,-0.3467 3.305,-0.3467 1.5099,0 2.989,0.1695 4.4373,0.5085l0 -1.0631c0,-0.6472 -0.0693,-1.2712 -0.208,-1.8721 -0.1386,-0.6009 -0.4006,-1.1478 -0.7858,-1.6409 -0.3851,-0.493 -0.909,-0.8859 -1.5715,-1.1786 -0.6625,-0.2928 -1.5177,-0.4392 -2.5654,-0.4392 -1.325,0 -2.4806,0.0925 -3.4667,0.2774 -0.9861,0.1849 -1.741,0.3698 -2.2649,0.5547l-0.4622 -3.1432c0.5239,-0.2465 1.3944,-0.4622 2.6116,-0.6471 1.2172,-0.1849 2.5191,-0.2773 3.9058,-0.2773zm27.9184 16.5939c0,-0.7704 -0.3158,-1.4021 -0.9475,-1.8951 -0.6317,-0.4931 -1.4175,-0.9245 -2.3574,-1.2943 -0.9398,-0.3698 -1.9644,-0.7318 -3.0738,-1.0862 -1.1093,-0.3544 -2.1339,-0.7935 -3.0738,-1.3174 -0.9398,-0.5238 -1.7256,-1.1709 -2.3573,-1.9413 -0.6318,-0.7704 -0.9476,-1.7719 -0.9476,-3.0045 0,-1.7256 0.701,-3.1662 2.1031,-4.3218 1.4021,-1.1556 3.5977,-1.7333 6.5867,-1.7333 1.171,0 2.3805,0.0847 3.6285,0.2542 1.248,0.1695 2.3189,0.3929 3.2125,0.6702l-0.6934 3.4205c-0.2465,-0.1233 -0.5854,-0.2542 -1.0168,-0.3929 -0.4315,-0.1387 -0.9245,-0.2619 -1.4792,-0.3698 -0.5546,-0.1078 -1.1478,-0.1926 -1.7795,-0.2542 -0.6317,-0.0616 -1.2403,-0.0925 -1.8258,-0.0925 -3.3281,0 -4.9921,0.9091 -4.9921,2.7272 0,0.6471 0.3159,1.1941 0.9476,1.6409 0.6317,0.4468 1.4252,0.8551 2.3805,1.2249 0.9552,0.3698 1.9875,0.7472 3.0969,1.1324 1.1093,0.3852 2.1416,0.8552 3.0969,1.4098 0.9552,0.5547 1.7487,1.2249 2.3804,2.0107 0.6318,0.7858 0.9476,1.7796 0.9476,2.9814 0,1.9413 -0.755,3.4435 -2.2649,4.5067 -1.5099,1.0631 -3.8981,1.5946 -7.1645,1.5946 -1.4791,0 -2.835,-0.1232 -4.0676,-0.3697 -1.2326,-0.2466 -2.4036,-0.6163 -3.5129,-1.1094l0.7396 -3.4667c1.0785,0.4931 2.2109,0.9014 3.3973,1.2249 1.1864,0.3236 2.4575,0.4854 3.8134,0.4854 3.4821,0 5.2231,-0.8783 5.2231,-2.6347zm18.1193 -16.0855l9.0596 0 0 3.1894 -9.0596 0 0 9.9841c0,1.0785 0.077,1.9567 0.2311,2.6346 0.1541,0.678 0.4083,1.2249 0.7627,1.6409 0.3544,0.416 0.8089,0.7011 1.3635,0.8552 0.5547,0.154 1.2326,0.2311 2.0338,0.2311 1.1094,0 2.003,-0.0925 2.6809,-0.2774 0.678,-0.1848 1.3251,-0.4314 1.9414,-0.7395l0.5547 3.2356c-0.4314,0.1849 -1.1171,0.4314 -2.0569,0.7395 -0.9399,0.3082 -2.1032,0.4622 -3.4898,0.4622 -1.6024,0 -2.9121,-0.1848 -3.929,-0.5546 -1.0169,-0.3698 -1.8103,-0.9245 -2.3804,-1.664 -0.5701,-0.7396 -0.963,-1.6563 -1.1787,-2.7503 -0.2157,-1.0939 -0.3236,-2.365 -0.3236,-3.8133l0 -9.9841 -4.5298 0 0 -3.1894 4.5298 0 0 -6.0089 3.7903 -0.6471 0 6.656zm21.5397 -3.328c-0.8012,0 -1.4945,-0.2773 -2.08,-0.832 -0.5855,-0.5547 -0.8782,-1.3097 -0.8782,-2.2649 0,-0.9553 0.2927,-1.7103 0.8782,-2.2649 0.5855,-0.5547 1.2788,-0.832 2.08,-0.832 0.832,0 1.5331,0.2773 2.1032,0.832 0.57,0.5546 0.8551,1.3096 0.8551,2.2649 0,0.9552 -0.2851,1.7102 -0.8551,2.2649 -0.5701,0.5547 -1.2712,0.832 -2.1032,0.832zm-0.9707 6.5174l-6.1938 0 0 -3.1894 9.9841 0 0 13.1735c0,2.1262 0.2927,3.5514 0.8782,4.2755 0.5855,0.7242 1.4637,1.0863 2.6347,1.0863 0.8937,0 1.718,-0.1079 2.4729,-0.3236 0.755,-0.2157 1.3482,-0.4468 1.7796,-0.6933l0.5547 3.2356c-0.1849,0.0924 -0.4468,0.208 -0.7858,0.3466 -0.339,0.1387 -0.7319,0.2697 -1.1787,0.3929 -0.4468,0.1233 -0.9399,0.2311 -1.4791,0.3236 -0.5393,0.0924 -1.1017,0.1386 -1.6871,0.1386 -1.3559,0 -2.4807,-0.1848 -3.3743,-0.5546 -0.8936,-0.3698 -1.6101,-0.9245 -2.1493,-1.664 -0.5393,-0.7396 -0.9168,-1.6563 -1.1325,-2.7503 -0.2157,-1.0939 -0.3236,-2.365 -0.3236,-3.8133l0 -9.9841z"/>
  <path style="fill:#00FFD0" d="M19.6299 13.5192c1.0071,2.1291 10.5237,2.6287 11.704,0l0 6.992c-1.6968,1.8539 -9.4374,1.6254 -11.704,0l0 -6.992zm14.6366 -4.9024c1.0071,2.1291 10.5237,2.6287 11.704,0l0 6.992c-1.6968,1.8539 -9.4374,1.6254 -11.704,0l0 -6.992zm15.5869 5.7641c1.0071,2.1291 10.5237,2.6287 11.704,0l0 6.992c-1.6968,1.8539 -9.4374,1.6254 -11.704,0l0 -6.992zm-14.5948 5.8784c1.0071,2.1291 10.5237,2.6287 11.704,0l0 6.992c-1.6968,1.8539 -9.4374,1.6254 -11.704,0l0 -6.992zm2.4541 14.4633l-0.0042 21.6606 -28.7492 -14.4846 0.0042 -21.6606 28.7492 14.4846zm34.47 7.058l-0.0042 -21.6606 -28.7492 14.4846 0.0042 21.6606 28.7492 -14.4846z"/>
</svg>
