<?xml version="1.0" encoding="UTF-8"?>
<!DOCTYPE svg PUBLIC "-//W3C//DTD SVG 1.1//EN" "http://www.w3.org/Graphics/SVG/1.1/DTD/svg11.dtd">
<svg xmlns="http://www.w3.org/2000/svg" xml:space="preserve" width="7cm" height="7cm" shape-rendering="geometricPrecision" text-rendering="geometricPrecision" image-rendering="optimizeQuality" fill-rule="evenodd" clip-rule="evenodd" viewBox="0 0 7 7" xmlns:xlink="http://www.w3.org/1999/xlink">
  <path fill="#00FFD0" d="M1.40589 1.60192c0.10071,0.21291 1.05237,0.26287 1.1704,0l0 0.6992c-0.16968,0.18539 -0.94374,0.16254 -1.1704,0l0 -0.6992zm1.46366 -0.49024c0.10071,0.21291 1.05237,0.26287 1.1704,0l0 0.6992c-0.16968,0.18539 -0.94374,0.16254 -1.1704,0l0 -0.6992zm1.55869 0.57641c0.10071,0.21291 1.05237,0.26287 1.1704,0l0 0.6992c-0.16968,0.18539 -0.94374,0.16254 -1.1704,0l0 -0.6992zm-1.45948 0.58784c0.10071,0.21291 1.05237,0.26287 1.1704,0l0 0.6992c-0.16968,0.18539 -0.94374,0.16254 -1.1704,0l0 -0.6992zm0.24541 1.44633l-0.00042 2.16606 -2.87492 -1.44846 0.00042 -2.16606 2.87492 1.44846zm3.447 0.7058l-0.00042 -2.16606 -2.87492 1.44846 0.00042 2.16606 2.87492 -1.44846z" />
</svg>
