<?xml version="1.0" encoding="UTF-8"?>
<!DOCTYPE svg PUBLIC "-//W3C//DTD SVG 1.1//EN" "http://www.w3.org/Graphics/SVG/1.1/DTD/svg11.dtd">
<svg xmlns="http://www.w3.org/2000/svg" xml:space="preserve" width="25cm" height="6.5cm" shape-rendering="geometricPrecision" text-rendering="geometricPrecision" image-rendering="optimizeQuality" fill-rule="evenodd" clip-rule="evenodd" viewBox="0 0 25 6.5" xmlns:xlink="http://www.w3.org/1999/xlink">
  <style>
    path.rasti {
      fill: #382A41;
    }

    @media (prefers-color-scheme: dark) {
      path.rasti {
        fill: #FFF9F9;
      }
    }
  </style>
  <path class="rasti" fill-rule="nonzero" d="M8.72891 1.96534c0.14783,0 0.28171,0.01673 0.40164,0.0502 0.11995,0.03347 0.22314,0.08506 0.30961,0.1548 0.08647,0.06973 0.15271,0.15829 0.19873,0.26567 0.04602,0.10739 0.06903,0.2336 0.06903,0.37863 0,0.15062 -0.03068,0.2873 -0.09204,0.41002 -0.06137,0.12272 -0.16317,0.21616 -0.30542,0.28032 0.04742,0.07252 0.09762,0.1527 0.15062,0.24057 0.053,0.08786 0.10459,0.1799 0.1548,0.27613 0.05021,0.09623 0.09831,0.19246 0.14434,0.28868 0.04602,0.09623 0.08577,0.18757 0.11924,0.27404l-0.53971 0c-0.06415,-0.16735 -0.13877,-0.32843 -0.22384,-0.48323 -0.08507,-0.1548 -0.17641,-0.31169 -0.27404,-0.47068l-0.26776 0 0 0.95391 -0.51461 0 0 -2.55213c0.05021,-0.01115 0.10529,-0.02162 0.16526,-0.03137 0.05997,-0.00976 0.12063,-0.01674 0.182,-0.02093 0.06136,-0.00418 0.11993,-0.00767 0.17571,-0.01045 0.05579,-0.0028 0.1046,-0.00418 0.14644,-0.00418zm0.45604 0.84512c0,-0.13667 -0.04184,-0.23708 -0.12552,-0.30123 -0.08368,-0.06415 -0.19385,-0.09623 -0.33052,-0.09623 -0.01952,0 -0.04324,0.0007 -0.07112,0.0021 -0.0279,0.00138 -0.05579,0.00488 -0.08368,0.01045l0 0.77819 0.11296 0c0.17572,0 0.30263,-0.03417 0.38073,-0.1025 0.0781,-0.06834 0.11715,-0.16527 0.11715,-0.29078zm1.79068 1.40576c0.05578,0 0.11016,-0.0007 0.16316,-0.00208 0.053,-0.0014 0.09902,-0.00489 0.13807,-0.01047l0 -0.45185c-0.03347,-0.00558 -0.07392,-0.01046 -0.12133,-0.01464 -0.04742,-0.00419 -0.09065,-0.00628 -0.1297,-0.00628 -0.053,0 -0.1046,0.00349 -0.1548,0.01046 -0.05021,0.00697 -0.09413,0.01883 -0.1318,0.03557 -0.03765,0.01673 -0.06763,0.04043 -0.08995,0.07112 -0.02231,0.03068 -0.03346,0.07113 -0.03346,0.12133 0,0.08926 0.03346,0.15271 0.10041,0.19036 0.06694,0.03765 0.1534,0.05648 0.2594,0.05648zm-0.04603 -1.64842c0.16178,0 0.29636,0.01883 0.40374,0.05648 0.10738,0.03766 0.19315,0.09065 0.2573,0.15899 0.06415,0.06834 0.11018,0.15201 0.13806,0.25102 0.0279,0.09903 0.04185,0.2099 0.04185,0.33262l0 1.17147c-0.07531,0.01674 -0.18688,0.03626 -0.33471,0.05857 -0.14783,0.02232 -0.31378,0.03347 -0.49788,0.03347 -0.12551,0 -0.23916,-0.01115 -0.34097,-0.03347 -0.10181,-0.02231 -0.18897,-0.05927 -0.26149,-0.11087 -0.07253,-0.0516 -0.12831,-0.11854 -0.16736,-0.20082 -0.03905,-0.08229 -0.05857,-0.18339 -0.05857,-0.30333 0,-0.11435 0.02232,-0.21058 0.06694,-0.28868 0.04463,-0.0781 0.1046,-0.14085 0.17991,-0.18827 0.0753,-0.04742 0.16177,-0.08159 0.2594,-0.10251 0.09761,-0.02092 0.19943,-0.03137 0.30541,-0.03137 0.13388,0 0.25243,0.01115 0.35563,0.03347l0 -0.06277c0,-0.09761 -0.03068,-0.1792 -0.09205,-0.24475 -0.06136,-0.06554 -0.16735,-0.09831 -0.31796,-0.09831 -0.09763,0 -0.19177,0.00697 -0.28242,0.02091 -0.09064,0.01395 -0.16386,0.03069 -0.21964,0.05021l-0.07113 -0.4142c0.06415,-0.02231 0.1548,-0.04253 0.27194,-0.06066 0.11715,-0.01814 0.23848,-0.0272 0.364,-0.0272zm2.04171 1.62751c0.12551,0 0.22174,-0.00907 0.28868,-0.0272 0.06694,-0.01813 0.10041,-0.05509 0.10041,-0.11087 0,-0.03626 -0.01046,-0.06695 -0.03138,-0.09205 -0.02092,-0.0251 -0.0502,-0.04671 -0.08786,-0.06485 -0.03766,-0.01813 -0.08089,-0.03556 -0.1297,-0.05229 -0.04881,-0.01674 -0.09971,-0.03347 -0.1527,-0.05021 -0.07532,-0.02231 -0.15202,-0.04811 -0.23012,-0.0774 -0.0781,-0.02928 -0.14921,-0.06624 -0.21337,-0.11087 -0.06415,-0.04462 -0.11715,-0.10111 -0.15899,-0.16944 -0.04183,-0.06834 -0.06275,-0.15411 -0.06275,-0.25731 0,-0.08368 0.01604,-0.16247 0.04812,-0.23638 0.03207,-0.07392 0.08228,-0.13946 0.15061,-0.19665 0.06833,-0.05717 0.1555,-0.1018 0.26148,-0.13388 0.106,-0.03207 0.2329,-0.04811 0.38073,-0.04811 0.12831,0 0.24755,0.00976 0.35772,0.02929 0.11017,0.01952 0.20571,0.04742 0.28659,0.08367l-0.07949 0.43512c-0.04742,-0.01394 -0.12133,-0.03696 -0.22174,-0.06903 -0.10042,-0.03208 -0.21338,-0.04811 -0.33889,-0.04811 -0.13109,0 -0.21965,0.01603 -0.26567,0.04811 -0.04603,0.03207 -0.06903,0.06624 -0.06903,0.1025 0,0.03069 0.01045,0.05787 0.03137,0.08159 0.02092,0.0237 0.04881,0.04532 0.08368,0.06485 0.03486,0.01952 0.07531,0.03835 0.12133,0.05648 0.04602,0.01813 0.09553,0.03556 0.14853,0.0523 0.0753,0.0251 0.1534,0.05299 0.23428,0.08367 0.0809,0.03068 0.15411,0.06903 0.21966,0.11506 0.06554,0.04601 0.11924,0.10459 0.16107,0.17571 0.04185,0.07113 0.06276,0.1583 0.06276,0.2615 0,0.08088 -0.01534,0.15758 -0.04603,0.2301 -0.03067,0.07253 -0.08158,0.13528 -0.1527,0.18828 -0.07113,0.05299 -0.16386,0.09483 -0.27823,0.12551 -0.11435,0.03068 -0.25521,0.04602 -0.42256,0.04602 -0.17014,0 -0.31518,-0.01952 -0.43511,-0.05857 -0.11994,-0.03905 -0.21617,-0.07392 -0.28869,-0.1046l0.07949 -0.43093c0.09762,0.03905 0.20152,0.07531 0.3117,0.10878 0.11017,0.03347 0.22243,0.05021 0.3368,0.05021zm1.73628 -1.15055l-0.44766 0 0 -0.42675 0.44766 0 0 -0.49369 0.51461 -0.08368 0 0.57737 0.82422 0 0 0.42675 -0.82422 0 0 0.79492c0,0.07252 0.00698,0.13109 0.02092,0.17572 0.01394,0.04463 0.03347,0.07949 0.05857,0.10459 0.02511,0.02511 0.05579,0.04185 0.09205,0.05021 0.03626,0.00837 0.0767,0.01255 0.12132,0.01255 0.04742,0 0.09135,-0.00139 0.1318,-0.00418 0.04044,-0.00279 0.07949,-0.00767 0.11715,-0.01465 0.03765,-0.00696 0.0767,-0.01743 0.11714,-0.03138 0.04044,-0.01394 0.08437,-0.03207 0.13179,-0.05438l0.07113 0.44348c-0.09484,0.03905 -0.19734,0.06694 -0.30751,0.08368 -0.11018,0.01673 -0.21687,0.0251 -0.32007,0.0251 -0.11993,0 -0.22592,-0.00976 -0.31796,-0.02929 -0.09205,-0.01952 -0.17015,-0.05718 -0.2343,-0.11296 -0.06415,-0.05578 -0.11296,-0.13458 -0.14643,-0.23638 -0.03348,-0.10181 -0.05021,-0.235 -0.05021,-0.39956l0 -0.80747zm2.68183 -0.99157c0,0.10041 -0.03208,0.17991 -0.09623,0.23848 -0.06415,0.05858 -0.14085,0.08786 -0.23011,0.08786 -0.08925,0 -0.16525,-0.02928 -0.22802,-0.08786 -0.06275,-0.05857 -0.09413,-0.13807 -0.09413,-0.23848 0,-0.1032 0.03138,-0.18409 0.09413,-0.24265 0.06277,-0.05858 0.13877,-0.08787 0.22802,-0.08787 0.08926,0 0.16596,0.02929 0.23011,0.08787 0.06415,0.05856 0.09623,0.13945 0.09623,0.24265zm0.76564 2.44753c-0.106,0.05021 -0.20571,0.08438 -0.29914,0.10251 -0.09344,0.01812 -0.17922,0.02719 -0.25731,0.02719 -0.13389,0 -0.24615,-0.01952 -0.3368,-0.05857 -0.09065,-0.03905 -0.16317,-0.09553 -0.21755,-0.16945 -0.0544,-0.07391 -0.09275,-0.16386 -0.11506,-0.26986 -0.02232,-0.10598 -0.03347,-0.22731 -0.03347,-0.36398l0 -0.7238 -0.54389 0 0 -0.42675 1.0585 0 0 1.21749c0,0.11714 0.02161,0.20431 0.06485,0.26149 0.04323,0.05717 0.11505,0.08576 0.21546,0.08576 0.04742,0 0.1046,-0.00628 0.17154,-0.01883 0.06694,-0.01255 0.14225,-0.03835 0.22592,-0.0774l0.06695 0.4142zm3.90351 -0.04602c0,0.15898 -0.01953,0.29217 -0.05858,0.39955 -0.03905,0.10739 -0.09274,0.19386 -0.16107,0.2594 -0.06835,0.06554 -0.14923,0.11227 -0.24266,0.14016 -0.09345,0.0279 -0.19455,0.04183 -0.30333,0.04183 -0.13388,0 -0.25801,-0.01673 -0.37236,-0.0502 -0.11437,-0.03347 -0.22453,-0.0767 -0.33053,-0.1297l0.15899 -0.43511c0.06973,0.03905 0.1541,0.076 0.25312,0.11087 0.09902,0.03486 0.18897,0.0523 0.26986,0.0523 0.08647,0 0.1534,-0.0258 0.20082,-0.0774 0.04741,-0.0516 0.07113,-0.14713 0.07113,-0.2866l0 -1.43504 -0.79493 0 0 -0.42675 1.30954 0 0 1.83669zm-0.06277 -2.40151c0,0.10041 -0.03207,0.17991 -0.09622,0.23848 -0.06416,0.05858 -0.14086,0.08786 -0.23011,0.08786 -0.08926,0 -0.16526,-0.02928 -0.22802,-0.08786 -0.06276,-0.05857 -0.09414,-0.13807 -0.09414,-0.23848 0,-0.1032 0.03138,-0.18409 0.09414,-0.24265 0.06276,-0.05858 0.13876,-0.08787 0.22802,-0.08787 0.08925,0 0.16595,0.02929 0.23011,0.08787 0.06415,0.05856 0.09622,0.13945 0.09622,0.24265zm1.43506 2.14212c0.12551,0 0.22174,-0.00907 0.28868,-0.0272 0.06694,-0.01813 0.10041,-0.05509 0.10041,-0.11087 0,-0.03626 -0.01045,-0.06695 -0.03138,-0.09205 -0.02092,-0.0251 -0.0502,-0.04671 -0.08785,-0.06485 -0.03766,-0.01813 -0.08089,-0.03556 -0.1297,-0.05229 -0.04882,-0.01674 -0.09972,-0.03347 -0.15271,-0.05021 -0.07531,-0.02231 -0.15202,-0.04811 -0.23012,-0.0774 -0.0781,-0.02928 -0.14921,-0.06624 -0.21336,-0.11087 -0.06415,-0.04462 -0.11715,-0.10111 -0.15899,-0.16944 -0.04184,-0.06834 -0.06276,-0.15411 -0.06276,-0.25731 0,-0.08368 0.01604,-0.16247 0.04812,-0.23638 0.03207,-0.07392 0.08228,-0.13946 0.15061,-0.19665 0.06833,-0.05717 0.1555,-0.1018 0.26149,-0.13388 0.10599,-0.03207 0.2329,-0.04811 0.38073,-0.04811 0.1283,0 0.24754,0.00976 0.35772,0.02929 0.11016,0.01952 0.2057,0.04742 0.28658,0.08367l-0.07949 0.43512c-0.04741,-0.01394 -0.12133,-0.03696 -0.22174,-0.06903 -0.10042,-0.03208 -0.21338,-0.04811 -0.33889,-0.04811 -0.13109,0 -0.21965,0.01603 -0.26567,0.04811 -0.04602,0.03207 -0.06903,0.06624 -0.06903,0.1025 0,0.03069 0.01046,0.05787 0.03138,0.08159 0.02091,0.0237 0.0488,0.04532 0.08367,0.06485 0.03486,0.01952 0.07531,0.03835 0.12133,0.05648 0.04603,0.01813 0.09553,0.03556 0.14853,0.0523 0.0753,0.0251 0.1534,0.05299 0.23429,0.08367 0.08089,0.03068 0.1541,0.06903 0.21965,0.11506 0.06555,0.04601 0.11924,0.10459 0.16108,0.17571 0.04184,0.07113 0.06275,0.1583 0.06275,0.2615 0,0.08088 -0.01533,0.15758 -0.04602,0.2301 -0.03068,0.07253 -0.08158,0.13528 -0.15271,0.18828 -0.07112,0.05299 -0.16386,0.09483 -0.27822,0.12551 -0.11436,0.03068 -0.25521,0.04602 -0.42257,0.04602 -0.17013,0 -0.31518,-0.01952 -0.43511,-0.05857 -0.11993,-0.03905 -0.21616,-0.07392 -0.28868,-0.1046l0.07948 -0.43093c0.09763,0.03905 0.20153,0.07531 0.3117,0.10878 0.11018,0.03347 0.22244,0.05021 0.3368,0.05021z" />
  <path fill="#00FFD0" fill-rule="nonzero" d="M19.7156 4.25387c0,0.12273 -0.03766,0.21617 -0.11297,0.28032 -0.07531,0.06416 -0.16178,0.09623 -0.25939,0.09623 -0.05021,0 -0.09763,-0.00837 -0.14225,-0.0251 -0.04463,-0.01674 -0.08438,-0.04114 -0.11925,-0.07322 -0.03486,-0.03208 -0.06275,-0.07113 -0.08367,-0.11715 -0.02092,-0.04601 -0.03138,-0.09971 -0.03138,-0.16108 0,-0.05856 0.01046,-0.11086 0.03138,-0.15688 0.02092,-0.04603 0.04881,-0.08438 0.08367,-0.11506 0.03487,-0.03068 0.07462,-0.05439 0.11925,-0.07112 0.04462,-0.01674 0.09204,-0.02511 0.14225,-0.02511 0.09761,0 0.18408,0.03208 0.25939,0.09623 0.07531,0.06415 0.11297,0.1548 0.11297,0.27194z" />
  <path fill="#00FFD0" d="M1.64149 1.52869c0.09133,0.19308 0.95436,0.23839 1.0614,0l0 0.63408c-0.15388,0.16812 -0.85585,0.1474 -1.0614,0l0 -0.63408zm1.32734 -0.44458c0.09133,0.19308 0.95436,0.23839 1.0614,0l0 0.63408c-0.15388,0.16812 -0.85585,0.1474 -1.0614,0l0 -0.63408zm1.41352 0.52273c0.09134,0.19308 0.95436,0.23838 1.0614,0l0 0.63407c-0.15388,0.16813 -0.85585,0.14741 -1.0614,0l0 -0.63407zm-1.32355 0.53309c0.09133,0.19308 0.95436,0.23838 1.0614,0l0 0.63408c-0.15388,0.16812 -0.85585,0.1474 -1.0614,0l0 -0.63408zm0.22256 1.31162l-0.00038 1.96433 -2.60717 -1.31356 0.00038 -1.96433 2.60717 1.31356zm3.12596 0.64007l-0.00038 -1.96433 -2.60716 1.31356 0.00038 1.96433 2.60716 -1.31356z" />
</svg>
